<svg width="539" height="549" xmlns="http://www.w3.org/2000/svg" xmlns:xlink="http://www.w3.org/1999/xlink" xml:space="preserve" overflow="hidden"><g transform="translate(-781 -1022)"><g><g><g><path d="M1178.47 1414.83C1177.92 1400.2 1171.15 1386.5 1159.85 1377.19 1148.97 1368.23 1137.02 1360.65 1124.28 1354.61 1125.21 1354.61 1126.17 1354.66 1127.04 1354.66 1148.75 1354.66 1166.35 1337.06 1166.35 1315.35 1166.35 1299.69 1157.06 1285.52 1142.7 1279.29 1155.37 1259.84 1149.87 1233.8 1130.42 1221.13 1127.92 1219.5 1125.25 1218.14 1122.46 1217.08 1133.36 1194.88 1124.2 1168.05 1102 1157.15 1099.46 1155.9 1096.81 1154.9 1094.08 1154.16 1070.92 1114.64 1020.11 1101.37 980.591 1124.54 968.346 1131.71 958.147 1141.91 950.971 1154.16 927.122 1160.7 913.094 1185.34 919.638 1209.19 920.383 1211.9 921.383 1214.54 922.625 1217.07 900.934 1225.34 890.053 1249.63 898.322 1271.32 899.387 1274.11 900.747 1276.78 902.379 1279.29 882.464 1287.93 873.327 1311.08 881.971 1331 888.206 1345.36 902.372 1354.66 918.031 1354.66 918.942 1354.66 919.938 1354.6 920.919 1354.55 909.029 1360.22 897.81 1367.21 887.471 1375.37L899.883 1387.8 906.867 1394.79 899.999 1401.9 892.804 1409.35 892.709 1409.44 892.613 1409.54C889.703 1412.4 885.78 1414.01 881.695 1413.99 881.278 1413.99 880.865 1413.99 880.453 1413.95L876.931 1417.47 925.181 1465.98C932.24 1473.04 932.245 1484.47 925.193 1491.53 918.141 1498.59 906.701 1498.6 899.642 1491.55L866.602 1458.62 866.602 1503.45 871.079 1506.44C895.733 1522.86 960.092 1531.05 1023.99 1531.05 1088.39 1531.05 1152.33 1522.72 1174.47 1506.12L1178.5 1503.1ZM962.17 1254.03 962.17 1238.94C962.17 1238.14 962.256 1237.36 962.291 1236.57 979.936 1231.73 1015.05 1218.49 1022.5 1188.62 1022.5 1188.62 1039.93 1227.73 1082.82 1237.27 1082.82 1237.84 1082.91 1238.38 1082.91 1238.95L1082.91 1254.04C1082.87 1287.37 1055.86 1314.38 1022.53 1314.42L1022.53 1314.42C989.203 1314.37 962.201 1287.36 962.17 1254.03ZM1002.38 1450.83 951.519 1363.18 967.7 1356.64 1002.38 1370.52ZM1022.5 1356.9 988.348 1343.24C990.931 1339.21 992.307 1334.52 992.312 1329.74L992.312 1328.6C1011.67 1336.51 1033.36 1336.51 1052.72 1328.6L1052.72 1329.72C1052.72 1334.51 1054.09 1339.19 1056.67 1343.22ZM1042.62 1450.88 1042.62 1370.52 1077.34 1356.67 1093.52 1363.21Z"/><path d="M906.751 1484.41C909.888 1487.53 914.957 1487.51 918.071 1484.37 921.171 1481.25 921.171 1476.21 918.071 1473.09L862.728 1417.45 877.821 1402.35C879.973 1404.46 883.418 1404.46 885.569 1402.35L892.764 1394.91 854.929 1357.02 847.533 1364.42C845.394 1366.56 845.394 1370.03 847.533 1372.17L806.227 1413.17C804.087 1411.03 800.618 1411.03 798.479 1413.17L791.062 1420.72 828.948 1458.55 836.344 1451.21C838.453 1449.05 838.453 1445.61 836.344 13000.46L850.934 1428.82Z"/></g></g></g><g><g><g><path d="M134.75 64.3126 82.6876 64.3126 82.6876 12.25 64.3126 12.25 64.3126 64.3126 12.25 64.3126 12.25 82.6876 64.3126 82.6876 64.3126 134.75 82.6876 134.75 82.6876 82.6876 134.75 82.6876Z" fill="#00B050" transform="matrix(-1 0 0 1 1320 1022)"/></g></g></g></g></svg>