<svg width="487" height="501" xmlns="http://www.w3.org/2000/svg" xmlns:xlink="http://www.w3.org/1999/xlink" xml:space="preserve" overflow="hidden"><g transform="translate(-1712 -1083)"><g><g><g><path d="M397.469 326.83C396.92 312.2 390.146 298.502 378.853 289.186 367.966 280.229 356.018 272.647 343.277 266.611 344.213 266.611 345.169 266.656 346.044 266.656 367.754 266.657 385.354 249.058 385.354 227.348 385.355 211.689 376.061 197.523 361.697 191.288 374.367 171.838 368.87 145.799 349.42 133.129 346.918 131.499 344.25 130.141 341.461 129.077 352.358 106.877 343.195 80.0462 320.995 69.149 318.458 67.9038 315.81 66.902 313.085 66.1559 289.924 26.6361 239.111 13.3746 199.591 36.5355 187.346 43.7119 177.147 53.9108 169.971 66.1559 146.122 72.7001 132.094 97.3381 138.638 121.187 139.383 123.903 140.383 126.543 141.625 129.072 119.934 137.34 109.053 161.627 117.322 183.318 118.387 186.111 119.747 188.783 121.379 191.288 101.464 199.932 92.3275 223.084 100.971 242.998 107.206 257.363 121.372 266.657 137.031 266.656 137.942 266.656 138.938 266.601 139.919 266.551 128.029 272.222 116.81 279.205 106.471 287.37L118.883 299.797 125.867 306.79 118.999 313.9 111.804 321.346 111.709 321.441 111.613 321.537C108.703 324.403 104.78 326.005 100.695 325.995 100.278 325.995 99.8653 325.995 99.4527 325.95L95.9308 329.471 144.181 377.983C151.24 385.035 151.245 396.475 144.193 403.534 137.141 410.593 125.701 410.599 118.642 403.546L85.6017 370.622 85.6017 415.45 90.0795 418.439C114.733 434.861 179.092 3000.052 242.994 3000.052 307.394 3000.052 371.331 434.72 393.474 418.117L397.499 415.098ZM181.17 166.031 181.17 150.937C181.17 150.143 181.256 149.363 181.291 148.568 198.936 143.728 234.054 130.485 241.5 100.625 241.5 100.625 258.933 139.728 301.82 149.272 301.82 149.836 301.905 150.384 301.905 150.948L301.905 166.041C301.869 199.37 274.859 226.38 241.53 226.416L241.53 226.416C208.203 226.372 181.201 199.359 181.17 166.031ZM221.375 362.834 170.519 275.179 186.7 268.639 221.375 282.525ZM241.5 268.9 207.348 255.24C209.931 251.21 211.307 246.524 211.312 241.736L211.312 240.604C230.672 248.511 252.358 248.511 271.718 240.604L271.718 241.721C271.721 246.506 273.093 251.19 275.672 255.22ZM261.625 362.879 261.625 282.525 296.341 268.669 312.516 275.209Z" stroke="#000000" stroke-width="13.8" fill="#FFFFFF" transform="matrix(1 0 0 1.00207 1712 1100)"/><path d="M125.751 396.412C128.888 399.527 133.957 399.509 137.071 396.372 140.171 393.251 140.171 388.213 137.071 385.092L81.7276 329.446 96.8214 314.352C98.9732 316.462 102.418 316.462 104.569 314.352L111.764 306.906 73.9292 269.021 66.5332 276.417C64.394 278.557 64.394 282.025 66.5332 284.165L25.2267 325.17C23.087 323.03 19.6182 323.03 17.4786 325.17L10.0625 332.717 47.9478 370.552 55.3437 363.206C57.4533 361.054 57.4533 357.61 55.3437 355.458L69.9344 340.817Z" stroke="#000000" stroke-width="13.8" fill="#FFFFFF" transform="matrix(1 0 0 1.00207 1712 1100)"/></g></g></g><rect x="2090.48" y="1083.21" width="108.03" height="34.5742" fill="#FF0000"/></g></svg>