<?xml version="1.0" encoding="iso-8859-1"?>
<!-- Uploaded to: SVG Repo, www.svgrepo.com, Generator: SVG Repo Mixer Tools -->
<svg fill="#000000" height="800px" width="800px" version="1.1" id="Layer_1" xmlns="http://www.w3.org/2000/svg" xmlns:xlink="http://www.w3.org/1999/xlink" 
	 viewBox="0 0 408.669 408.669" xml:space="preserve">
<g>
	<g>
		<path d="M373.901,55.075c-4.562-7.398-18.719-7.946-26.348-8.617c-13.338-1.178-26.808-0.86-40.156-0.123
			c-32.067,1.761-64,6.349-95.549,12.211l-2.57-12.882l15.667-3.128c-2.232-11.167-23.936-8.545-31.258-7.05v0.005
			c-15.677,3.174-27.233,11.413-25.83,18.447l15.667-3.128l2.57,12.877C102.075,81.602,37.312,106.88,34.772,122.803l169.964-33.946
			L373.901,55.075z"/>
		<path d="M398.958,202.342h-26.68v-8.54c0-8.709,0.502-18.688,5.033-26.399c4.956-8.3000,14.362-11.223,23.675-11.223v-7.086
			H204.337H11.615v7.086c0.328,0,0.625,0.036,0.947,0.046h-0.005c21.146,0.476,27.761,19.164,27.761,37.581v8.54H9.715
			c-12.954,0-12.954,20.086,0,20.086h30.602v114.796c0,20.618,16.717,37.335,37.335,37.335h126.684h130.606
			c20.618,0,37.335-16.717,37.335-37.335V222.423h26.68C411.907,222.423,411.907,202.342,398.958,202.342z"/>
	</g>
</g>
</svg>