<svg width="461" height="431" xmlns="http://www.w3.org/2000/svg" xmlns:xlink="http://www.w3.org/1999/xlink" xml:space="preserve" overflow="hidden"><g transform="translate(-1738 -1677)"><g><g><g><path d="M304.362 100.881C294.684 100.889 285.134 103.083 276.423 107.301 268.077 80.755 243.417 62.7378 215.59 62.8541 213.641 62.8541 211.661 62.9484 209.708 63.1235 184.156 65.4626 162.482 82.8601 154.671 107.301 122.94 91.8635 84.7036 105.072 69.2666 136.802 53.8292 168.532 67.0371 206.769 98.7672 222.206 103.48 224.499 108.457 226.203 113.586 227.281L113.586 368.146 317.467 368.146 317.467 227.272C351.99 219.994 374.076 186.109 366.799 151.586 360.574 122.059 334.538 100.915 304.362 100.881ZM308.488 359.166 122.566 359.166 122.566 323.25 308.488 323.25ZM308.488 219.738C304.744 220.003 300.989 220.075 297.237 219.954 294.774 219.896 292.712 221.808 292.581 224.268 292.488 226.745 294.419 228.829 296.896 228.924 297.318 228.924 299.011 229 301.26 229 303.379 229 305.983 228.933 308.488 228.74L308.488 314.271 122.566 314.271 122.566 228.74C125.071 228.928 127.67 229 129.789 229 132.034 229 133.731 228.942 134.153 228.924 136.633 228.829 138.566 226.743 138.472 224.264 138.378 221.784 136.292 219.85 133.812 219.945 130.069 220.067 126.323 219.997 122.588 219.734 92.2901 217.447 69.5827 191.032 71.8692 160.734 74.1557 130.436 100.571 107.728 130.869 110.015 141.815 110.841 152.263 114.923 160.871 121.735 163.286 95.3739 184.165 74.4889 210.525 72.0667 212.227 71.9096 213.92 71.8333 215.59 71.8333 243.953 71.8683 267.622 93.4986 270.205 121.744 279.911 114.045 291.937 109.856 304.326 109.86L304.376 109.86C334.765 109.968 359.312 134.69 359.205 165.079 359.103 193.716 337.054 217.487 308.506 219.738Z" transform="matrix(1 0 0 1 1738 1677)"/></g></g></g><rect x="2090.48" y="1708.83" width="108.03" height="34.339" fill="#FF0000"/></g></svg>