<svg width="512" height="431" xmlns="http://www.w3.org/2000/svg" xmlns:xlink="http://www.w3.org/1999/xlink" xml:space="preserve" overflow="hidden"><g transform="translate(-873 -1677)"><g><g><g><path d="M133.834 63.875 82.1251 63.875 82.1251 12.1666 63.875 12.1666 63.875 63.875 12.1666 63.875 12.1666 82.1251 63.875 82.1251 63.875 133.834 82.1251 133.834 82.1251 82.1251 133.834 82.1251Z" fill="#00B050" transform="matrix(-1 0 0 1.00685 1385 1677)"/></g></g></g><g><g><g><path d="M358.776 157.5C358.802 126.115 333.381 100.652 301.997 100.625 289.16 100.614 276.697 104.951 266.639 112.927 263.779 81.6611 236.115 58.6328 204.849 61.4923 177.543 63.9896 155.911 85.6218 153.414 112.927 128.809 93.432 93.0592 97.5734 73.5638 122.178 54.0684 146.782 58.2098 182.532 82.8143 202.028 91.6956 209.065 102.478 213.287 113.776 214.152L113.776 306.25 306.276 306.25 306.276 214.152C335.889 211.884 358.764 187.2 358.776 157.5Z" transform="matrix(1 0 0 1.00238 873 1687)"/><path d="M113.776 323.75 306.276 323.75 306.276 358.75 113.776 358.75Z" transform="matrix(1 0 0 1.00238 873 1687)"/></g></g></g></g></svg>