<svg width="556" height="578" xmlns="http://www.w3.org/2000/svg" xmlns:xlink="http://www.w3.org/1999/xlink" xml:space="preserve" overflow="hidden"><defs><clipPath id="clip0"><rect x="781" y="367" width="556" height="578"/></clipPath><clipPath id="clip1"><rect x="781" y="462" width="483" height="483"/></clipPath><clipPath id="clip2"><rect x="781" y="462" width="483" height="483"/></clipPath><clipPath id="clip3"><rect x="781" y="462" width="483" height="483"/></clipPath></defs><g clip-path="url(#clip0)" transform="translate(-781 -367)"><g clip-path="url(#clip1)"><g clip-path="url(#clip2)"><g clip-path="url(#clip3)"><path d="M1222.91 527.092C1217.52 518.349 1200.78 517.701 1191.77 516.908 1176 515.516 1160.08 515.892 1144.31 516.763 1106.41 518.844 1068.67 524.266 1031.38 531.195L1028.34 515.97 1046.86 512.273C1044.22 499.075 1018.57 502.173 1009.92 503.94L1009.92 503.946C991.387 507.698 977.73 517.435 979.388 525.749L997.904 522.052 1000.94 537.271C901.641 558.444 825.099 588.32 822.096 607.139L1022.97 567.019 1222.91 527.092Z"/><path d="M1252.52 701.145 1220.99 701.145 1220.99 691.052C1220.99 680.759 1221.58 668.965 1226.94 659.851 1232.8 649.873 1243.91 646.587 1254.92 646.587L1254.92 638.212 1022.5 638.212 794.728 638.212 794.728 646.587C795.115 646.587 795.466 646.629 795.847 646.641L795.841 646.641C820.833 647.204 828.651 669.291 828.651 691.058L828.651 701.151 792.482 701.151C777.172 701.151 777.172 724.89 792.482 724.89L828.65 724.89 828.65 860.566C828.65 884.934 848.408 904.692 872.776 904.692L1022.5 904.692 1176.86 904.692C1201.23 904.692 1220.99 884.934 1220.99 860.566L1220.99 724.879 1252.52 724.879C1267.83 724.879 1267.83 701.145 1252.52 701.145Z"/></g></g></g><g><g><g><path d="M133.833 63.8749 82.1248 63.8749 82.1248 12.1666 63.8749 12.1666 63.8749 63.8749 12.1666 63.8749 12.1666 82.1248 63.8749 82.1248 63.8749 133.833 82.1248 133.833 82.1248 82.1248 133.833 82.1248Z" fill="#00B050" transform="matrix(-1 0 0 1 1337 367)"/></g></g></g></g></svg>