<svg width="537" height="523" xmlns="http://www.w3.org/2000/svg" xmlns:xlink="http://www.w3.org/1999/xlink" xml:space="preserve" overflow="hidden"><defs><clipPath id="clip0"><rect x="1662" y="422" width="537" height="523"/></clipPath><clipPath id="clip1"><rect x="1662" y="462" width="483" height="483"/></clipPath><clipPath id="clip2"><rect x="1662" y="462" width="483" height="483"/></clipPath><clipPath id="clip3"><rect x="1662" y="462" width="483" height="483"/></clipPath></defs><g clip-path="url(#clip0)" transform="translate(-1662 -422)"><g clip-path="url(#clip1)"><g clip-path="url(#clip2)"><g clip-path="url(#clip3)"><path d="M2103.91 527.092C2098.52 518.349 2081.78 517.701 2072.77 516.908 2057 515.516 2041.08 515.892 2025.31 516.763 1987.41 518.844 1949.67 524.266 1912.38 531.195L1909.34 515.97 1927.86 512.273C1925.22 499.075 1899.57 502.173 1890.92 503.94L1890.92 503.946C1872.39 507.698 1858.73 517.435 1860.39 525.749L1878.9 522.052 1881.94 537.271C1782.64 558.444 1706.1 588.32 1703.1 607.139L1903.97 567.019 2103.91 527.092Z" stroke="#000000" stroke-width="10.3584" fill="#FFFFFF"/><path d="M2133.52 701.145 2101.99 701.145 2101.99 691.052C2101.99 680.759 2102.58 668.965 2107.94 659.851 2113.8 649.873 2124.91 646.587 2135.92 646.587L2135.92 638.212 1903.5 638.212 1675.73 638.212 1675.73 646.587C1676.12 646.587 1676.47 646.629 1676.85 646.641L1676.84 646.641C1701.83 647.204 1709.65 669.291 1709.65 691.058L1709.65 701.151 1673.48 701.151C1658.17 701.151 1658.17 724.89 1673.48 724.89L1709.65 724.89 1709.65 860.566C1709.65 884.934 1729.41 904.692 1753.78 904.692L1903.5 904.692 2057.86 904.692C2082.23 904.692 2101.99 884.934 2101.99 860.566L2101.99 724.879 2133.52 724.879C2148.83 724.879 2148.83 701.145 2133.52 701.145Z" stroke="#000000" stroke-width="10.3584" fill="#FFFFFF"/></g></g></g><rect x="2090.48" y="422.831" width="108.03" height="34.339" fill="#FF0000"/></g></svg>